# AST/ASF file generated using VICON BodyLanguage
# -----------------------------------------------
:version 1.10
:name VICON
:units
  mass 1.0
  length 0.45
  angle deg
:documentation
   .ast/.asf automatically generated from VICON data using
   VICON BodyBuilder and BodyLanguage model FoxedUp or BRILLIANT.MOD
:root
   order TX TY TZ RX RY RZ
   axis XYZ
   position 0 0 0  
   orientation 0 0 0 
:bonedata
  begin
     id 1 
     name lhipjoint
     direction 0.630082 -0.636569 0.44472 
     length 2.82754 
     axis 0 0 0  XYZ
  end
  begin
     id 2 
     name lfemur
     direction 0.34202 -0.939693 0  
     length 7.26371  
     axis 0 0 20  XYZ
    dof rx ry rz
    limits (-160.0 20.0)
           (-70.0 70.0)
           (-60.0 70.0)
  end
  begin
     id 3 
     name ltibia
     direction 0.34202 -0.939693 0   
     length 7.88616   
     axis 0 0 20   XYZ
    dof rx
    limits (-10.0 170.0)
  end
  begin
     id 4 
     name lfoot
     direction 0.0603448 -0.165796 0.984312   
     length 1.77861   
     axis -90 7.62852e-016 20   XYZ
    dof rx rz
    limits (-45.0 90.0)
           (-70.0 20.0)
  end
  begin
     id 5 
     name ltoes
     direction 1.53577e-011 -4.21876e-011 1   
     length 0.902235   
     axis -90 7.62852e-016 20   XYZ
    dof rx
    limits (-90.0 20.0)
  end
  begin
     id 6 
     name rhipjoint
     direction -0.656778 -0.61817 0.431866   
     length 2.9117  
     axis 0 0 0  XYZ 
  end
  begin
     id 7 
     name rfemur
     direction -0.34202 -0.939693 0   
     length 6.81603   
     axis 0 0 -20   XYZ
    dof rx ry rz
    limits (-160.0 20.0)
           (-70.0 70.0)
           (-70.0 60.0)
  end
  begin
     id 8 
     name rtibia
     direction -0.34202 -0.939693 0   
     length 8.05997   
     axis 0 0 -20   XYZ
    dof rx
    limits (-10.0 170.0)
 end
 begin
     id 9 
     name rfoot
     direction -0.0862404 -0.236944 0.967688   
     length 1.84899  
     axis -90 -7.62852e-016 -20   XYZ
    dof rx rz
    limits (-45.0 90.0)
           (-20.0 70.0)
  end
  begin
     id 10 
     name rtoes
     direction -1.53561e-011 -4.21798e-011 1   
     length 0.931579   
     axis -90 -7.62852e-016 -20   XYZ
    dof rx
    limits (-90.0 20.0)
  end
  begin
     id 11 
     name lowerback
     direction -0.0110203 0.991769 -0.127564   
     length 2.05686   
     axis 0 0 0   XYZ
    dof rx ry rz
    limits (-20.0 45.0)
           (-30.0 30.0)
           (-30.0 30.0)
  end
  begin
     id 12 
     name upperback
     direction 0.0109719 0.99993 -0.00432479   
     length 2.06234   
     axis 0 0 0   XYZ
    dof rx ry rz
    limits (-20.0 45.0)
           (-30.0 30.0)
           (-30.0 30.0)
  end
  begin
     id 13 
     name thorax
     direction 0.0173308 0.998351 0.0547306   
     length 2.09856   
     axis 0 0 0   XYZ
    dof rx ry rz
    limits (-20.0 45.0)
           (-30.0 30.0)
           (-30.0 30.0)
  end
  begin
     id 14 
     name lowerneck
     direction -0.0311736 0.989033 0.144366   
     length 1.98151   
     axis 0 0 0   XYZ
    dof rx ry rz
    limits (-20.0 45.0)
           (-30.0 30.0)
           (-30.0 30.0)
  end
  begin
     id 15 
     name upperneck
     direction 0.0421057 0.975772 -0.214698   
     length 2.01457   
     axis 0 0 0   XYZ
    dof rx ry rz
    limits (-20.0 45.0)
           (-30.0 30.0)
           (-30.0 30.0)
  end
  begin
     id 16
     name head
     direction 0.0136911 0.995958 -0.0887718  
     length 2.03562  
     axis 0 0 0   XYZ
    dof rx ry rz
    limits (-20.0 45.0)
           (-30.0 30.0)
           (-30.0 30.0)
  end
  begin
     id 17 
     name lclavicle
     direction 0.915335 0.396201 0.0720134  
     length 4.16217  
     axis 0 0 0   XYZ
    dof ry rz
    limits (-20.0 10.0)
           (0.0 20.0)
  end
  begin
     id 18 
     name lhumerus
     direction 1 -4.48965e-011 6.383e-018   
     length 4.93042   
     axis -180 -30 -90   XYZ
    dof rx ry rz
    limits (-60.0 90.0)
           (-90.0 90.0)
           (-90.0 90.0)
  end
  begin
     id 19
     name lradius
     direction 1 -4.48972e-011 8.8689e-027   
     length 3.68177   
     axis -180 -30 -90   XYZ
    dof rx
    limits (-10.0 170.0)
  end
  begin
     id 20
     name lwrist
     direction 1 -4.48953e-011 1.17971e-026   
     length 1.84089   
     axis -7.69454e-015 90 90   XYZ
    dof ry
    limits (-180.0 0.0)
 end
  begin
     id 21 
     name lhand
     direction 1 -4.49027e-011 2.35802e-026   
     length 0.721479   
     axis -1.50533e-014 90 90   XYZ
    dof rx rz
    limits (-90.0 90.0)
           (-45.0 45.0)
  end
  begin
     id 22 
     name lfingers
     direction 1 -4.48915e-011 4.72027e-026   
     length 0.581675   
     axis -3.01059e-014 90 90   XYZ
    dof rx
    limits (0.0 90.0)
  end
  begin
     id 23
     name lthumb
     direction 0.707107 -6.34948e-011 0.707107   
     length 0.835172   
     axis -90 45 -5.12164e-014   XYZ
    dof rx rz
    limits (-45.0 45.0)
           (-45.0 45.0)
  end
  begin
     id 24 
     name rclavicle
     direction -0.882781 0.469197 0.0234974   
     length 3.95647  
     axis 0 0 0   XYZ 
    dof ry rz
    limits (-10.0 20.0)
           (-20.0 0.0)
  end
  begin
     id 25 
     name rhumerus
     direction -1 -4.48965e-011 -1.54906e-018  
     length 5.07905   
     axis -180 30 90   XYZ
    dof rx ry rz
    limits (-90.0 60.0)
           (-90.0 90.0)
           (-90.0 90.0)
  end
  begin
     id 26 
     name rradius
     direction -1 -4.48972e-011 5.47489e-027   
     length 3.54394   
     axis -180 30 90   XYZ
    dof rx
    limits (-10.0 170.0)
  end
  begin
     id 27 
     name rwrist
     direction -1 -4.48955e-011 1.17969e-026   
     length 1.77197   
     axis -7.69454e-015 -90 -90   XYZ
    dof ry
    limits (-180.0 0.0)
  end
  begin
     id 28
     name rhand
     direction -1 -4.48982e-011 2.35888e-026   
     length 0.681156   
     axis -1.50533e-014 -90 -90   XYZ
    dof rx rz
    limits (-90.0 90.0)
           (-45.0 45.0)
  end
  begin
     id 29
     name rfingers
     direction -1 -4.48955e-011 4.71877e-026   
     length 0.549165   
     axis -3.01059e-014 -90 -90   XYZ
    dof rx
    limits (0.0 90.0)
  end
  begin
     id 30
     name rthumb
     direction -0.707107 -6.3491e-011 0.707107   
     length 0.788495   
     axis -90 -45 5.12164e-014   XYZ
    dof rx rz
    limits (-45.0 45.0)
           (-45.0 45.0)
  end
:hierarchy
  begin
    root lhipjoint rhipjoint lowerback
    lhipjoint lfemur
    lfemur ltibia
    ltibia lfoot
    lfoot ltoes
    rhipjoint rfemur
    rfemur rtibia
    rtibia rfoot
    rfoot rtoes
    lowerback upperback
    upperback thorax
    thorax lowerneck lclavicle rclavicle
    lowerneck upperneck
    upperneck head
    lclavicle lhumerus
    lhumerus lradius
    lradius lwrist
    lwrist lhand lthumb
    lhand lfingers
    rclavicle rhumerus
    rhumerus rradius
    rradius rwrist
    rwrist rhand rthumb
    rhand rfingers
  end

#!OML:ASF H:\Bending\Project 1\Capture day 1\Session 1\Subject.ASF
:FULLY-SPECIFIED
:DEGREES
179
root -10.0163 17.9578 -16.6224 206.084 88.0041 201.243
lowerback 7.69665 0.164251 0.808392
upperback -2.5141 0.452353 1.93528
thorax -6.97124 0.241671 1.51271
lowerneck -24.6004 -4.76456 -6.9394
upperneck 32.2354 -4.81432 3.36349
head 15.8413 -2.19662 1.68554
rclavicle -3.18055e-015 -7.15625e-015
rhumerus -17.0954 16.7894 -86.9314
rradius 94.0324
rwrist 5.43507
rhand -21.9884 -35.874
rfingers 7.12502
rthumb 4.41997 -65.8079
lclavicle -3.18055e-015 -7.15625e-015
lhumerus -10.9855 -17.8467 96.5036
lradius 92.3672
lwrist 32.6196
lhand -33.9424 30.2623
lfingers 7.12502
lthumb -7.12401 60.1224
rfemur 5.92955 -6.57715 14.3398
rtibia -6.36111e-015
rfoot -8.91171 -17.2223
rtoes -3.98861
lfemur -11.9789 -5.67601 -14.4127
ltibia 27.2372
lfoot -21.5453 9.81463
ltoes -34.2986
180
root -10.0284 17.9604 -16.6308 204.033 88.1579 199.171
lowerback 7.74911 0.212169 0.738647
upperback -2.49675 0.506529 1.89996
thorax -6.98428 0.27003 1.50746
lowerneck -24.5833 -4.78057 -7.01566
upperneck 32.0339 -4.83527 3.42675
head 15.7472 -2.20877 1.71774
rclavicle 1.88845e-015 -1.59028e-015
rhumerus -15.811 16.8264 -86.3149
rradius 93.0591
rwrist 5.33893
rhand -21.5331 -35.5438
rfingers 7.12502
rthumb 4.85964 -65.468
lclavicle 1.88845e-015 -1.59028e-015
lhumerus -9.34556 -17.749 96.1097
lradius 90.9097
lwrist 33.1762
lhand -33.7837 30.2484
lfingers 7.12502
lthumb -6.97076 60.1136
rfemur 5.87104 -6.46887 14.184
rtibia -1.43125e-014
rfoot -8.98971 -17.1997
rtoes -3.40473
lfemur -11.9548 -5.6739 -14.5758
ltibia 27.1414
lfoot -21.5181 9.90424
ltoes -34.19
181
root -10.0422 17.9632 -16.6359 201.379 88.3155 196.492
lowerback 7.79891 0.263902 0.612177
upperback -2.46793 0.558979 1.86165
thorax -6.98409 0.299787 1.5311
lowerneck -24.5934 -4.79416 -7.05222
upperneck 31.8865 -4.85872 3.46844
head 15.6835 -2.21923 1.73398
rclavicle -3.75206e-015 -2.8625e-014
rhumerus -14.5075 16.7679 -85.7867
rradius 92.0464
rwrist 5.42597
rhand -21.2325 -35.1072
rfingers 7.12502
rthumb 5.14987 -65.0246
lclavicle -3.75206e-015 -2.8625e-014
lhumerus -7.6468 -17.7018 95.6415
lradius 89.284
lwrist 33.7988
lhand -33.6285 30.2185
lfingers 7.12502
lthumb -6.82098 60.0886
rfemur 5.8016 -6.35775 14.0299
rtibia -6.36111e-015
rfoot -9.06009 -17.1811
rtoes -2.76278
lfemur -11.9293 -5.62985 -14.7329
ltibia 27.0269
lfoot -21.5044 9.90106
ltoes -33.7438
182
root -10.0572 17.9664 -16.6389 198.791 88.4446 193.861
lowerback 7.83999 0.303707 0.473992
upperback -2.43725 0.59466 1.83217
thorax -6.97691 0.322053 1.57289
lowerneck -24.628 -4.79247 -7.04162
upperneck 31.7798 -4.86342 3.47262
head 15.6404 -2.22092 1.73046
rclavicle 6.21202e-016 4.77083e-015
rhumerus -13.152 16.6206 -85.3814
rradius 90.9649
rwrist 5.60616
rhand -20.968 -34.7015
rfingers 7.12502
rthumb 5.40528 -64.6126
lclavicle 6.21202e-016 4.77083e-015
lhumerus -5.96248 -17.7025 95.1198
lradius 87.6013
lwrist 34.3881
lhand -33.5135 30.1759
lfingers 7.12502
lthumb -6.70995 60.0495
rfemur 5.70449 -6.26672 13.9096
rtibia -1.11319e-014
rfoot -9.10146 -17.1686
rtoes -2.20222
lfemur -11.9393 -5.57294 -14.8542
ltibia 26.9213
lfoot -21.5035 9.83728
ltoes -33.0649
183
root -10.0732 17.97 -16.6411 196.964 88.5234 191.968
lowerback 7.87781 0.318246 0.362535
upperback -2.4111 0.600975 1.82132
thorax -6.97203 0.329348 1.62327
lowerneck -24.6683 -4.76511 -6.98988
upperneck 31.672 -4.83278 3.43734
head 15.5928 -2.20872 1.7104
rclavicle -1.2424e-015 4.77083e-015
rhumerus -11.7332 16.4122 -85.0893
rradius 89.8012
rwrist 5.79465
rhand -20.635 -34.4409
rfingers 7.12502
rthumb 5.72677 -64.3436
lclavicle -1.2424e-015 4.77083e-015
lhumerus -4.34677 -17.7427 94.5636
lradius 85.966
lwrist 34.9064
lhand -33.4686 30.1017
lfingers 7.12502
lthumb -6.66658 59.9767
rfemur 5.574 -6.21459 13.8392
rtibia -3.18055e-015
rfoot -9.09964 -17.163
rtoes -1.8403
lfemur -12.0089 -5.52082 -14.9251
ltibia 26.8451
lfoot -21.4997 9.74741
ltoes -32.3337
184
root -10.0901 17.9738 -16.6441 196.146 88.5442 191.064
lowerback 7.9263 0.301299 0.298041
upperback -2.39036 0.57227 1.83217
thorax -6.9779 0.318163 1.67486
lowerneck -24.691 -4.70703 -6.90902
upperneck 31.5059 -4.76107 3.37378
head 15.5091 -2.18098 1.6812
rclavicle 1.07344e-014 2.06736e-014
rhumerus -10.268 16.1724 -84.8674
rradius 88.5714
rwrist 5.94808
rhand -20.2229 -34.3495
rfingers 7.12502
rthumb 6.12467 -64.2409
lclavicle 1.07344e-014 2.06736e-014
lhumerus -2.82373 -17.8074 93.9915
lradius 84.4559
lwrist 35.3791
lhand -33.5056 29.9764
lfingers 7.12502
lthumb -6.70234 59.8504
rfemur 5.41554 -6.21074 13.8144
rtibia -3.18055e-015
rfoot -9.04996 -17.1635
rtoes -1.732
lfemur -12.1428 -5.47217 -14.95
ltibia 26.8058
lfoot -21.4688 9.65215
ltoes -31.732
185
root -10.1081 17.9777 -16.6488 195.939 88.5141 190.76
lowerback 7.9993 0.256021 0.280054
upperback -2.37046 0.512386 1.8593
thorax -6.99756 0.290235 1.72175
lowerneck -24.6802 -4.61937 -6.80962
upperneck 31.2276 -4.6553 3.30226
head 15.3627 -2.13958 1.65126
rclavicle -9.93923e-017 1.19271e-014
rhumerus -8.79439 15.9168 -84.6651
rradius 87.3225
rwrist 6.07044
rhand -19.8382 -34.3529
rfingers 7.12502
rthumb 6.49602 -64.2332
lclavicle -9.93923e-017 1.19271e-014
lhumerus -1.39023 -17.8777 93.4234
lradius 83.1149
lwrist 35.8619
lhand -33.6158 29.8033
lfingers 7.12502
lthumb -6.80868 59.6738
rfemur 5.24042 -6.25233 13.8145
rtibia 4.77083e-015
rfoot -8.95793 -17.169
rtoes -1.85119
lfemur -12.3285 -5.41204 -14.9492
ltibia 26.7973
lfoot -21.3895 9.55845
ltoes -31.3928
186
root -10.1272 17.9819 -16.6554 195.689 88.4529 190.406
lowerback 8.10224 0.19424 0.293974
upperback -2.34416 0.434605 1.89113
thorax -7.02681 0.252317 1.75826
lowerneck -24.6338 -4.50847 -6.69715
upperneck 30.8039 -4.53186 3.24554
head 15.1415 -2.08889 1.62732
rclavicle 3.97569e-015 5.56597e-015
rhumerus -7.35665 15.6417 -84.4496
rradius 86.1195
rwrist 6.19036
rhand -19.6449 -34.3383
rfingers 7.12502
rthumb 6.68259 -64.2128
lclavicle 3.97569e-015 5.56597e-015
lhumerus -0.0291279 -17.9396 92.8797
lradius 81.9548
lwrist 36.3954
lhand -33.7751 29.6175
lfingers 7.12502
lthumb -6.96251 59.483
rfemur 5.05814 -6.32454 13.8143
rtibia 9.54166e-015
rfoot -8.83722 -17.1778
rtoes -2.10291
lfemur -12.5442 -5.32684 -14.9481
ltibia 26.8054
lfoot -21.257 9.46721
ltoes -31.3507
187
root -10.1469 17.9866 -16.6634 195.013 88.3882 189.622
lowerback 8.22757 0.132544 0.320601
upperback -2.30582 0.35787 1.91552
thorax -7.05593 0.214103 1.77981
lowerneck -24.5636 -4.38354 -6.57417
upperneck 30.2325 -4.40931 3.2232
head 14.8517 -2.03389 1.61407
rclavicle -1.63997e-015 -2.06736e-014
rhumerus -5.98974 15.3328 -84.2196
rradius 85.0243
rwrist 6.33024
rhand -19.7626 -34.2223
rfingers 7.12502
rthumb 6.56897 -64.1004
lclavicle -1.63997e-015 -2.06736e-014
lhumerus 1.2752 -17.9885 92.3768
lradius 80.9643
lwrist 36.9765
lhand -33.9563 29.4763
lfingers 7.12502
lthumb -7.13743 59.336
rfemur 4.86977 -6.40371 13.7961
rtibia -1.59028e-015
rfoot -8.70493 -17.1879
rtoes -2.36476
lfemur -12.7695 -5.21653 -14.9652
ltibia 26.8148
lfoot -21.0886 9.38292
ltoes -31.5356
188
root -10.1664 17.9921 -16.6718 193.981 88.3479 188.473
lowerback 8.35756 0.0866514 0.344048
upperback -2.25479 0.300664 1.92596
thorax -7.07466 0.185111 1.78584
lowerneck -24.4887 -4.25434 -6.44611
upperneck 29.5444 -4.30142 3.24824
head 14.5161 -1.97859 1.61508
rclavicle -9.93923e-016 -5.56597e-015
rhumerus -4.70855 14.9794 -83.9999
rradius 84.0736
rwrist 6.48609
rhand -20.1864 -33.9765
rfingers 7.12502
rthumb 6.15988 -63.867
lclavicle -9.93923e-016 -5.56597e-015
lhumerus 2.52674 -18.0274 91.9233
lradius 80.1177
lwrist 37.5587
lhand -34.1334 29.433
lfingers 7.12502
lthumb -7.30833 59.2868
rfemur 4.66679 -6.46335 13.7584
rtibia -1.27222e-014
rfoot -8.57589 -17.1967
rtoes -2.53669
lfemur -12.9935 -5.09563 -15.0037
ltibia 26.8159
lfoot -20.9185 9.31595
ltoes -31.805
189
root -10.1849 17.9986 -16.6794 192.992 88.3515 187.345
lowerback 8.47182 0.0657057 0.355823
upperback -2.19642 0.274269 1.92513
thorax -7.07739 0.171326 1.78215
lowerneck -24.4288 -4.12916 -6.32344
upperneck 28.7965 -4.21274 3.32251
head 14.1667 -1.92524 1.6322
rclavicle -2.78299e-015 2.14687e-014
rhumerus -3.50607 14.5867 -83.8232
rradius 83.265
rwrist 6.62792
rhand -20.7508 -33.6094
rfingers 7.12502
rthumb 5.61495 -63.515
lclavicle -2.78299e-015 2.14687e-014
lhumerus 3.71799 -18.0596 91.5168
lradius 79.3798
lwrist 38.0807
lhand -34.2848 29.5099
lfingers 7.12502
lthumb -7.45446 59.3585
rfemur 4.43564 -6.48253 13.7154
rtibia -1.43125e-014
rfoot -8.45769 -17.2023
rtoes -2.58232
lfemur -13.2177 -4.98503 -15.0507
ltibia 26.8079
lfoot -20.7834 9.27807
ltoes -32.0018
190
root -10.2017 18.0059 -16.6855 192.583 88.4043 186.77
lowerback 8.55569 0.0690082 0.355464
upperback -2.13986 0.278458 1.92311
thorax -7.06548 0.173001 1.77952
lowerneck -24.3978 -4.01426 -6.22086
upperneck 28.0575 -4.14018 3.43743
head 13.8365 -1.87475 1.66542
rclavicle -3.97569e-016 1.11319e-014
rhumerus -2.35903 14.1783 -83.7097
rradius 82.5559
rwrist 6.71973
rhand -21.1609 -33.1394
rfingers 7.12502
rthumb 5.21899 -63.0552
lclavicle -3.97569e-016 1.11319e-014
lhumerus 4.83892 -18.0824 91.1448
lradius 78.707
lwrist 38.5017
lhand -34.3921 29.6847
lfingers 7.12502
lthumb -7.55805 59.5297
rfemur 4.16653 -6.45354 13.6895
rtibia -3.65764e-014
rfoot -8.34916 -17.2038
rtoes -2.53905
lfemur -13.4521 -4.89978 -15.0841
ltibia 26.7983
lfoot -20.7062 9.27374
ltoes -32.0153
191
root -10.2167 18.0135 -16.6898 193.3 88.4937 187.294
lowerback 8.60567 0.0864713 0.34964
upperback -2.0936 0.301575 1.93167
thorax -7.04573 0.18454 1.78828
lowerneck -24.4012 -3.91368 -6.15096
upperneck 27.3905 -4.07743 3.57642
head 13.5517 -1.82755 1.71194
rclavicle -1.2921e-015 3.97569e-015
rhumerus -1.23821 13.7856 -83.656
rradius 81.8774
rwrist 6.74511
rhand -21.1118 -32.5904
rfingers 7.12502
rthumb 5.26643 -62.5049
lclavicle -1.2921e-015 3.97569e-015
lhumerus 5.88896 -18.0854 90.7887
lradius 78.0477
lwrist 38.8249
lhand -34.442 29.9029
lfingers 7.12502
lthumb -7.60618 59.7462
rfemur 3.86188 -6.38566 13.7004
rtibia -2.06736e-014
rfoot -8.24366 -17.2019
rtoes -2.49098
lfemur -13.7075 -4.84251 -15.0837
ltibia 26.7986
lfoot -20.6873 9.29539
ltoes -31.821
192
root -10.2301 18.0206 -16.6925 195.498 88.5918 189.283
lowerback 8.62979 0.103236 0.350485
upperback -2.06114 0.325859 1.95724
thorax -7.02597 0.196953 1.811
lowerneck -24.4372 -3.82997 -6.11747
upperneck 26.8382 -4.02045 3.71971
head 13.327 -1.78462 1.76583
rclavicle 3.03147e-015 -2.54444e-014
rhumerus -0.118376 13.4323 -83.638
rradius 81.1558
rwrist 6.72262
rhand -20.4658 -32.0087
rfingers 7.12502
rthumb 5.89011 -61.9068
lclavicle 3.03147e-015 -2.54444e-014
lhumerus 6.88453 -18.0576 90.4291
lradius 77.3453
lwrist 39.0962
lhand -34.4321 30.1085
lfingers 7.12502
lthumb -7.59669 59.9521
rfemur 3.53975 -6.30234 13.7552
rtibia -1.74931e-014
rfoot -8.13429 -17.1993
rtoes -2.52305
lfemur -13.9863 -4.8066 -15.0409
ltibia 26.8192
lfoot -20.706 9.32709
ltoes -31.4775
